<?xml version="1.0" standalone="no"?>
<!DOCTYPE svg PUBLIC "-//W3C//DTD SVG 20010904//EN"
 "http://www.w3.org/TR/2001/REC-SVG-20010904/DTD/svg10.dtd">
<svg version="1.0" xmlns="http://www.w3.org/2000/svg"
 width="512.000000pt" height="512.000000pt" viewBox="0 0 512.000000 512.000000"
 preserveAspectRatio="xMidYMid meet">
<metadata>
Created by potrace 1.14, written by Peter Selinger 2001-2017
</metadata>
<g transform="translate(0.000000,512.000000) scale(0.100000,-0.100000)"
fill="#000000" stroke="none">
<path d="M2315 5113 c-589 -63 -1121 -310 -1543 -718 -408 -393 -686 -953
-757 -1525 -19 -159 -19 -448 0 -614 55 -467 256 -942 556 -1313 81 -101 272
-291 373 -373 275 -223 646 -409 985 -495 226 -57 335 -69 626 -70 295 0 388
10 613 65 352 86 725 271 1008 500 101 82 292 273 374 374 241 299 432 693
514 1067 75 338 75 760 0 1098 -105 478 -369 952 -716 1287 -386 372 -869 613
-1403 700 -97 15 -535 28 -630 17z m39 -1030 c-5 -10 -10 -163 -12 -341 l-3
-322 -72 -36 c-199 -100 -371 -283 -452 -483 -52 -128 -68 -222 -62 -381 5
-158 28 -261 87 -387 83 -179 238 -337 417 -426 l83 -42 -2 -260 -3 -260 -80
-22 c-174 -47 -329 -13 -444 97 -72 69 -101 128 -156 319 l-51 175 -139 82
c-77 44 -164 102 -192 128 -95 86 -154 246 -138 376 10 79 35 139 120 284 41
71 75 135 75 143 0 8 -18 85 -41 171 -36 138 -40 167 -37 244 4 75 9 96 41
161 72 145 156 211 337 261 52 15 125 36 162 47 l67 20 86 142 c88 147 130
199 200 247 45 31 152 71 209 79 4 0 4 -7 0 -16z m326 -38 c146 -22 263 -59
405 -130 285 -141 504 -364 644 -654 l46 -96 3 -234 3 -235 50 -65 c177 -235
203 -468 67 -617 -28 -30 -68 -64 -89 -74 l-38 -20 -3 -327 c-3 -318 -4 -330
-26 -379 -29 -64 -102 -136 -167 -165 -41 -19 -73 -24 -182 -27 l-133 -4 0
124 0 125 43 17 c184 70 227 315 79 448 -42 38 -120 68 -177 68 -97 0 -200
-66 -241 -154 -42 -91 -28 -212 33 -282 30 -34 102 -82 134 -89 l29 -7 0 -124
0 -124 -170 0 -170 0 0 315 c0 295 -1 315 -18 324 -27 15 -62 2 -73 -26 -5
-13 -9 -157 -9 -320 l0 -296 -80 6 c-80 6 -156 32 -192 64 -17 15 -18 53 -18
635 l0 618 200 0 200 0 0 -152 c0 -127 3 -154 17 -170 15 -16 36 -18 255 -18
225 0 239 1 258 20 24 24 25 38 3 62 -15 16 -35 18 -225 18 l-208 0 0 154 c0
149 -1 155 -22 170 -19 13 -60 16 -250 16 l-228 0 0 400 0 400 290 0 c277 0
291 1 310 20 24 24 24 29 4 58 -15 22 -17 22 -310 22 l-294 0 0 110 0 110 300
0 301 0 8 23 c5 12 5 31 1 42 -7 19 -18 20 -309 23 l-301 2 0 193 c0 137 3
196 12 205 16 16 122 15 238 -3z m-340 -852 l0 -128 -37 -25 c-53 -36 -137
-142 -177 -224 -37 -75 -66 -195 -66 -271 0 -80 30 -197 71 -282 42 -84 133
-196 183 -222 l26 -14 0 -129 0 -128 -42 21 c-239 121 -406 351 -449 614 -16
100 -6 267 21 365 60 215 200 394 401 513 35 20 65 37 66 37 2 0 3 -57 3 -127z
m-5 -1042 c-11 -10 -84 85 -119 154 -44 88 -55 138 -56 246 0 136 42 250 128
342 l47 49 3 -392 c1 -216 0 -396 -3 -399z m917 -451 c172 -48 170 -294 -3
-340 -107 -29 -219 58 -219 171 0 76 45 139 117 164 47 17 58 18 105 5z"/>
<path d="M2942 3047 l-32 -33 0 -205 0 -205 33 -32 33 -32 201 0 201 0 31 35
31 36 0 202 0 203 -29 32 -30 32 -203 0 -204 0 -32 -33z m406 -234 l-3 -168
-170 0 -170 0 -3 168 -2 167 175 0 175 0 -2 -167z"/>
</g>
</svg>
